<svg width="24" height="25" viewBox="0 0 24 25" fill="none" xmlns="http://www.w3.org/2000/svg">
<path d="M18.4283 8.9981C17.9588 9.19686 17.4609 9.3274 16.9512 9.38541C17.4883 9.07771 17.8901 8.59367 18.0819 8.02344C17.5773 8.3104 17.0249 8.51237 16.4489 8.62057C15.9626 8.12409 15.283 7.84274 14.572 7.84351C13.1519 7.84351 12.0002 8.94546 12.0002 10.3052C12.0002 10.4981 12.0233 10.6851 12.0665 10.8656C9.9282 10.7626 8.03386 9.78324 6.76501 8.2938C6.53655 8.66946 6.41649 9.09646 6.4171 9.53111C6.4171 10.3851 6.87129 11.1388 7.56121 11.5801C7.1528 11.5677 6.75338 11.4622 6.39627 11.2721C6.39588 11.2825 6.39588 11.2928 6.39588 11.3026C6.39588 12.4955 7.28245 13.4907 8.45937 13.7166C8.23848 13.7738 8.01065 13.8027 7.78182 13.8026C7.61562 13.8026 7.45434 13.7879 7.29757 13.7591C7.62506 14.7369 8.57429 15.4487 9.70013 15.4682C8.78908 16.1525 7.66403 16.5238 6.50589 16.5222C6.30092 16.5224 6.09611 16.5108 5.89258 16.4876C7.06835 17.211 8.43694 17.5949 9.8347 17.5935C14.5657 17.5935 17.1525 13.8428 17.1525 10.5902C17.1525 10.4838 17.1498 10.377 17.1449 10.2717C17.6484 9.92355 18.083 9.49227 18.4283 8.9981Z" fill="#FFB703"/>
</svg>
