<svg width="24" height="25" viewBox="0 0 24 25" fill="none" xmlns="http://www.w3.org/2000/svg">
<path d="M12.6078 7.14709C13.2348 7.14813 13.5525 7.15145 13.8271 7.15963L13.9353 7.16316C14.0602 7.1676 14.1834 7.17317 14.332 7.18013C14.9249 7.20753 15.3293 7.30132 15.6845 7.43922C16.0517 7.58083 16.3619 7.77212 16.6716 8.08181C16.9808 8.3915 17.1721 8.70258 17.3142 9.06892C17.4516 9.42365 17.5454 9.82852 17.5733 10.4214C17.5799 10.57 17.5853 10.6933 17.5897 10.8182L17.5932 10.9263C17.6013 11.2009 17.6051 11.5187 17.6062 12.1457L17.6067 12.5611C17.6067 12.6119 17.6067 12.6643 17.6067 12.7183L17.6067 12.8755L17.6063 13.291C17.6053 13.918 17.602 14.2358 17.5938 14.5103L17.5902 14.6185C17.5858 14.7434 17.5803 14.8667 17.5733 15.0152C17.5459 15.6082 17.4516 16.0125 17.3142 16.3677C17.1726 16.735 16.9808 17.0452 16.6716 17.3549C16.3619 17.6641 16.0503 17.8554 15.6845 17.9974C15.3293 18.1349 14.9249 18.2287 14.332 18.2565C14.1834 18.2632 14.0602 18.2686 13.9353 18.2729L13.8271 18.2764C13.5525 18.2846 13.2348 18.2883 12.6078 18.2895L12.1923 18.29C12.1415 18.29 12.0892 18.29 12.0351 18.29H11.8779L11.4625 18.2896C10.8354 18.2886 10.5176 18.2852 10.2431 18.277L10.135 18.2735C10.01 18.2691 9.88677 18.2635 9.7382 18.2565C9.14528 18.2292 8.74134 18.1349 8.38569 17.9974C8.01888 17.8559 7.70827 17.6641 7.39858 17.3549C7.08889 17.0452 6.89806 16.7336 6.75599 16.3677C6.61809 16.0125 6.52477 15.6082 6.49691 15.0152C6.49029 14.8667 6.48489 14.7434 6.48052 14.6185L6.47701 14.5103C6.46886 14.2358 6.46514 13.918 6.46394 13.291L6.46387 12.1457C6.4649 11.5187 6.46822 11.2009 6.47639 10.9263L6.47993 10.8182C6.48437 10.6933 6.48994 10.57 6.49691 10.4214C6.5243 9.82805 6.61809 9.42411 6.75599 9.06892C6.8976 8.70212 7.08889 8.3915 7.39858 8.08181C7.70827 7.77212 8.01935 7.58129 8.38569 7.43922C8.74088 7.30132 9.14482 7.20799 9.7382 7.18013C9.88677 7.17352 10.01 7.16812 10.135 7.16375L10.2431 7.16024C10.5176 7.15209 10.8354 7.14837 11.4625 7.14717L12.6078 7.14709ZM12.0351 9.93252C10.4957 9.93252 9.24929 11.1803 9.24929 12.7183C9.24929 14.2577 10.4971 15.5041 12.0351 15.5041C13.5745 15.5041 14.8209 14.2564 14.8209 12.7183C14.8209 11.1789 13.5731 9.93252 12.0351 9.93252ZM12.0351 11.0468C12.9583 11.0468 13.7066 11.7949 13.7066 12.7183C13.7066 13.6415 12.9585 14.3898 12.0351 14.3898C11.1119 14.3898 10.3636 13.6418 10.3636 12.7183C10.3636 11.7952 11.1117 11.0468 12.0351 11.0468ZM14.9602 9.09678C14.5762 9.09678 14.2638 9.40874 14.2638 9.79276C14.2638 10.1768 14.5757 10.4892 14.9602 10.4892C15.3442 10.4892 15.6567 10.1773 15.6567 9.79276C15.6567 9.40874 15.3437 9.0963 14.9602 9.09678Z" fill="#FFB703"/>
</svg>
