<svg width="24" height="25" viewBox="0 0 24 25" fill="none" xmlns="http://www.w3.org/2000/svg">
<path d="M16.6875 14.906C15.7612 14.906 14.945 15.3617 14.4323 16.0546L9.99969 13.7849C10.0733 13.534 10.125 13.2741 10.125 12.9998C10.125 12.6277 10.0487 12.274 9.91694 11.9486L14.5558 9.15713C15.0721 9.76301 15.8309 10.156 16.6875 10.156C18.2384 10.156 19.5 8.89441 19.5 7.34351C19.5 5.7926 18.2384 4.53101 16.6875 4.53101C15.1366 4.53101 13.875 5.7926 13.875 7.34351C13.875 7.70091 13.9486 8.03994 14.0707 8.35469L9.41797 11.1544C8.90216 10.5665 8.15428 10.1873 7.3125 10.1873C5.76159 10.1873 4.5 11.4488 4.5 12.9998C4.5 14.5507 5.76159 15.8123 7.3125 15.8123C8.25406 15.8123 9.08409 15.3432 9.59484 14.6308L14.0128 16.8932C13.9315 17.1558 13.875 17.4294 13.875 17.7185C13.875 19.2694 15.1366 20.531 16.6875 20.531C18.2384 20.531 19.5 19.2694 19.5 17.7185C19.5 16.1676 18.2384 14.906 16.6875 14.906Z" fill="#FFB703"/>
</svg>
