<svg width="61" height="61" viewBox="0 0 61 61" fill="none" xmlns="http://www.w3.org/2000/svg">
<g clip-path="url(#clip0_163_21225)">
<path d="M53.6495 43.0737C53.3204 42.9373 52.9416 43.0127 52.6897 43.2645L43.0655 52.8887C42.8137 53.1406 42.7383 53.5194 42.8747 53.8484C43.0109 54.1776 43.3322 54.3921 43.6884 54.3921H53.3125C53.799 54.3921 54.1932 53.9978 54.1932 53.5114V43.8872C54.1931 43.5311 53.9785 43.21 53.6495 43.0737ZM45.8142 52.6309L52.4316 46.0134V52.6309H45.8142Z" fill="#1E1E1E"/>
<path d="M60.0161 28.958C59.687 28.8215 59.3082 28.8969 59.0563 29.1487L56.4187 31.7863V13.8529C56.4187 13.3665 56.0244 12.9723 55.5381 12.9723H48.7715L51.2278 10.516C51.2281 10.5157 51.2285 10.5152 51.2289 10.5148L53.5956 8.14811C54.1026 7.64104 54.3819 6.96651 54.3819 6.24932C54.3819 5.53213 54.1026 4.85783 53.5956 4.35052L50.8588 1.61372C50.3517 1.10665 49.6772 0.827393 48.96 0.827393C48.2428 0.827393 47.5684 1.10665 47.0612 1.61372L44.6933 3.98162L41.832 6.84287L35.7028 12.9721H8.36662V4.25982C8.36662 3.77337 7.97228 3.37916 7.48595 3.37916C3.6668 3.37939 0.55957 6.48639 0.55957 10.3058V47.7104C0.55957 47.7755 0.56707 47.8388 0.58043 47.8997C0.702071 49.5203 1.4032 51.026 2.57497 52.1691C3.82747 53.3907 5.48087 54.0634 7.23072 54.0634H34.1415L29.0732 59.1317C28.8214 59.3836 28.746 59.7623 28.8823 60.0914C29.0186 60.4205 29.3398 60.6351 29.696 60.6351H59.679C60.1654 60.6351 60.5597 60.2409 60.5597 59.7544V29.7716C60.5597 29.4155 60.345 29.0942 60.0161 28.958ZM48.3069 2.85931C48.6669 2.49908 49.2534 2.49908 49.6134 2.85931L52.3503 5.59623C52.7106 5.95635 52.7106 6.54264 52.3503 6.90287L50.6053 8.64803L46.5616 4.60447L48.3069 2.85931ZM45.3161 5.84994L49.3597 9.89339L47.7438 11.5093L43.7005 7.46584L45.3161 5.84994ZM58.7986 39.6672H57.1738C56.6873 39.6672 56.2931 40.0614 56.2931 40.5478C56.2931 41.0343 56.6873 41.4285 57.1738 41.4285H58.7986V44.0823H57.1738C56.6873 44.0823 56.2931 44.4765 56.2931 44.963C56.2931 45.4494 56.6873 45.8437 57.1738 45.8437H58.7986V48.4974H57.1738C56.6873 48.4974 56.2931 48.8916 56.2931 49.378C56.2931 49.8645 56.6873 50.2587 57.1738 50.2587H58.7986V52.9125H57.1738C56.6873 52.9125 56.2931 53.3069 56.2931 53.7932C56.2931 54.2796 56.6873 54.6739 57.1738 54.6739H58.7986V58.8741H31.822L40.7175 49.9787C41.0614 49.6347 41.0614 49.0772 40.7175 48.7333C40.678 48.6938 40.6355 48.6596 40.5911 48.6291C40.2482 48.3942 39.7764 48.4288 39.4719 48.7333L35.9028 52.3023H7.23083C4.55989 52.3023 2.40973 50.2171 2.32512 47.551C2.33016 47.3836 2.34317 47.2177 2.36403 47.0536C2.36414 47.0527 2.36426 47.0517 2.36438 47.0508C2.37422 46.9729 2.38606 46.8953 2.39954 46.8182C2.40106 46.8094 2.4027 46.8006 2.40422 46.7918C2.41653 46.723 2.43036 46.6546 2.44547 46.5864C2.44969 46.5674 2.45414 46.5484 2.4586 46.5295C2.47196 46.4719 2.48637 46.4146 2.50184 46.3575C2.51028 46.3266 2.51907 46.296 2.52809 46.2652C2.54098 46.2204 2.55434 46.1758 2.56852 46.1316C2.5827 46.0874 2.59782 46.0437 2.61317 46C2.62383 45.9694 2.63438 45.9388 2.64586 45.9085C2.66731 45.8508 2.69004 45.7937 2.71348 45.7371C2.72016 45.7208 2.72672 45.7043 2.73364 45.688C2.76375 45.6177 2.79504 45.5482 2.82809 45.4795C2.8295 45.4766 2.83079 45.4737 2.83219 45.4708C3.52102 44.0453 4.84583 42.9825 6.43572 42.6527C6.44017 42.6518 6.44462 42.6508 6.44907 42.6498C6.52197 42.6349 6.59556 42.6222 6.66962 42.6103C6.68193 42.6083 6.69423 42.6059 6.70677 42.604C6.77368 42.5938 6.8413 42.5858 6.90892 42.5782C6.9279 42.5761 6.94677 42.5732 6.96587 42.5713C7.03115 42.5647 7.09701 42.5604 7.16287 42.5563C7.18372 42.555 7.20458 42.5528 7.22544 42.5517C7.31169 42.5474 7.39865 42.5452 7.48595 42.5452C7.97228 42.5452 8.36662 42.1509 8.36662 41.6645V35.2791C8.36662 34.7926 7.97228 34.3984 7.48595 34.3984C6.99962 34.3984 6.60529 34.7926 6.60529 35.2791V40.8393C5.11817 41.0274 3.73782 41.6906 2.64938 42.7535C2.53489 42.8653 2.42637 42.9816 2.32067 43.0997V10.3058C2.32067 7.75799 4.17528 5.6349 6.60517 5.2156V13.8529V31.7565V31.7566C6.60517 32.243 6.99951 32.6373 7.48583 32.6373C7.97216 32.6373 8.3665 32.243 8.3665 31.7566V31.7565V14.7336H33.9416L29.0731 19.602C28.7292 19.9461 28.7292 20.5036 29.0731 20.8475C29.4171 21.1913 29.9746 21.1913 30.3185 20.8475L36.6903 14.4757C36.6905 14.4754 36.6907 14.4752 36.6909 14.4751L42.4548 8.7112L46.4981 12.7548L46.0237 13.2291C46.0234 13.2295 46.0229 13.2298 46.0226 13.2302L28.2653 30.9876L24.2219 26.9442L27.722 23.444C28.066 23.1 28.066 22.5425 27.722 22.1986C27.3781 21.8547 26.8205 21.8547 26.4767 22.1986L22.3537 26.3215C22.3316 26.3435 22.311 26.3668 22.2917 26.3907C22.2852 26.3987 22.2795 26.4072 22.2734 26.4156C22.261 26.4321 22.2488 26.4487 22.2374 26.4661C22.231 26.4762 22.2251 26.4865 22.219 26.4969C22.2093 26.5133 22.1999 26.5299 22.1914 26.5469C22.1857 26.5579 22.1807 26.5691 22.1756 26.5806C22.1677 26.5978 22.1604 26.6154 22.1538 26.6329C22.1514 26.6392 22.1484 26.645 22.1461 26.6512L20.4304 31.5116L19.2606 34.8255C19.2452 34.8696 19.234 34.9144 19.2257 34.9595H16.2969C15.8106 34.9595 15.4163 35.3537 15.4163 35.8402C15.4163 36.3266 15.8106 36.7208 16.2969 36.7208H40.6854C41.1718 36.7208 41.566 36.3266 41.566 35.8402C41.566 35.3537 41.1718 34.9595 40.6854 34.9595H23.1877L28.5584 33.0636C28.5629 33.062 28.5671 33.0598 28.5715 33.0581C28.5924 33.0504 28.6129 33.0417 28.6332 33.0325C28.6413 33.0287 28.6494 33.0252 28.6572 33.0213C28.6783 33.0108 28.699 32.9992 28.7194 32.9868C28.726 32.9828 28.7328 32.9791 28.7392 32.975C28.7604 32.9614 28.7811 32.9466 28.8013 32.9309C28.8064 32.927 28.8117 32.9236 28.8166 32.9196C28.8411 32.8999 28.8651 32.8787 28.8878 32.856L47.0102 14.7337H54.6573V33.5477L42.0601 46.1451C41.7161 46.4891 41.7161 47.0466 42.0601 47.3905C42.0815 47.412 42.1039 47.4321 42.127 47.451C42.2885 47.5826 42.4857 47.6485 42.6828 47.6485C42.8799 47.6485 43.0773 47.5826 43.2386 47.451C43.2617 47.4322 43.2841 47.412 43.3056 47.3905C43.3059 47.3902 43.3056 47.3905 43.3059 47.3902L58.7986 31.8974V39.6672ZM26.6546 31.8676L24.132 32.7581L22.4513 31.0774L23.3418 28.5548L26.6546 31.8676Z" fill="#FFB703"/>
</g>
<defs>
<clipPath id="clip0_163_21225">
<rect width="60" height="60" fill="white" transform="translate(0.55957 0.731201)"/>
</clipPath>
</defs>
</svg>
